<svg xmlns="http://www.w3.org/2000/svg" viewBox="0 0 1200 550" role="img" aria-label="Concept diagram">
<defs><linearGradient id="bg" x2="1" y2="1"><stop stop-color="#0b1727"/><stop offset=".55" stop-color="#162a3d"/><stop offset="1" stop-color="#142039"/></linearGradient><radialGradient id="halo"><stop stop-color="#ff9d86" stop-opacity=".23"/><stop offset="1" stop-color="#ff9d86" stop-opacity="0"/></radialGradient><pattern id="grid" width="40" height="40" patternUnits="userSpaceOnUse"><path d="M40 0H0V40" fill="none" stroke="#9ec9e5" stroke-opacity=".065"/></pattern><filter id="soft"><feGaussianBlur stdDeviation="17"/></filter></defs>
<rect width="1200" height="550" fill="url(#bg)"/><rect width="1200" height="550" fill="url(#grid)"/><circle cx="830" cy="278" r="360" fill="url(#halo)"/>
<path d="M24 35h80M24 35v80M1176 515h-80M1176 515v-80" fill="none" stroke="#ff9d86" stroke-opacity=".48" stroke-width="2"/>
<circle cx="740" cy="280" r="186" fill="#1c344b" stroke="#ff9d86" stroke-opacity=".6" stroke-width="3"/><path d="M559 324q178-139 357-9M591 192q165 152 309 30" fill="none" stroke="#ff9d86" stroke-opacity=".34" stroke-width="3"/><g fill="none" stroke="#8ab9ff" stroke-width="3"><path d="M320 146h296M306 400h319M824 280h227"/></g><g fill="#10263b" stroke-width="3"><rect x="295" y="105" width="202" height="82" rx="14" stroke="#8ab9ff"/><rect x="282" y="361" width="214" height="82" rx="14" stroke="#8ab9ff"/><rect x="837" y="243" width="234" height="80" rx="14" stroke="#ff9d86"/></g><g fill="#e9f4ff" font-size="16" text-anchor="middle" font-family="Arial,sans-serif" letter-spacing="3"><text x="397" y="154">ROVER VLAN</text><text x="389" y="410">RESEARCH VLAN</text><text x="955" y="291">LIFE SUPPORT</text></g><path d="M720 258v-28a25 25 0 0 1 50 0v28m-59 0h68v66h-68z" fill="#182b40" stroke="#ff9d86" stroke-width="5"/><circle cx="745" cy="289" r="5" fill="#ff9d86"/><text x="740" y="384" fill="#ffb4a0" font-size="14" text-anchor="middle" font-family="Arial,sans-serif" letter-spacing="3">ACL · PORT SECURITY</text></svg>